<?xml version="1.0" encoding="UTF-8"?>
<svg width="210px" height="217px" viewBox="0 0 210 217" version="1.1" xmlns="http://www.w3.org/2000/svg" xmlns:xlink="http://www.w3.org/1999/xlink">
    <!-- Generator: Sketch 56 (81588) - https://sketch.com -->
    <title>clover</title>
    <desc>Created with Sketch.</desc>
    <g id="Page-1" stroke="none" stroke-width="1" fill="none" fill-rule="evenodd">
        <g id="clover" transform="translate(-3.000000, -3.000000)" fill="#008300">
            <path d="M123.078931,11.095379 C158.362146,68.5797932 172.094217,103.702141 164.275144,116.462421 C154.57823,132.287231 137.005305,112.531098 123.174984,112.574701 C109.344663,112.618303 91.750686,132.320704 82.2772025,116.506108 C74.0342748,102.745745 87.6348511,67.6088353 123.078931,11.095379 Z" id="Triangle-Copy-4" transform="translate(123.173536, 66.872867) rotate(199.000000) translate(-123.173536, -66.872867) "></path>
            <path d="M66.7846855,40.7217215 C102.081094,98.3222967 115.831895,133.507273 108.037087,146.27665 C98.3702664,162.112741 80.8002322,142.310878 66.988812,142.339794 C53.1773918,142.368709 35.6284088,162.079268 26.1509775,146.232964 C17.9046149,132.445011 31.4491842,97.2745973 66.7846855,40.7217215 Z" id="Triangle-Copy-5" transform="translate(66.981285, 96.569117) rotate(109.000000) translate(-66.981285, -96.569117) "></path>
            <path d="M93.7924423,95.8714511 C129.075657,153.355865 142.807728,188.478213 134.988655,201.238493 C125.291741,217.063303 107.718816,197.30717 93.8884948,197.350773 C80.0581737,197.394375 62.4641971,217.096776 52.9907136,201.28218 C44.747786,187.521817 58.3483622,152.384907 93.7924423,95.8714511 Z" id="Triangle-Copy-6" transform="translate(93.887047, 151.648939) rotate(19.000000) translate(-93.887047, -151.648939) "></path>
            <path d="M148.916063,68.9077499 C184.212472,126.508325 197.963272,161.693301 190.168465,174.462679 C180.501644,190.298769 162.93161,170.496907 149.120189,170.525822 C135.308769,170.554738 117.759786,190.265297 108.282355,174.418992 C100.035992,160.63104 113.580562,125.460626 148.916063,68.9077499 Z" id="Triangle-Copy-7" transform="translate(149.112662, 124.755145) rotate(-71.000000) translate(-149.112662, -124.755145) "></path>
            <path d="M163.177106,136.43009 C157.470918,154.898235 156.339529,171.060629 159.782941,184.917274 C164.948059,205.70224 173.738643,223.864974 172.882356,227.99144 C171.722863,232.313365 155.466461,232.665232 152.896003,227.974174 C149.491069,220.994662 144.886306,218.268426 147.993263,184.654358 C150.064568,162.244979 155.125849,146.170223 163.177106,136.43009 Z" id="Rectangle-Copy-4" transform="translate(159.952668, 183.896965) rotate(-47.000000) translate(-159.952668, -183.896965) "></path>
        </g>
    </g>
</svg>