<?xml version="1.0" encoding="UTF-8"?>
<svg width="339px" height="188px" viewBox="0 0 339 188" version="1.1" xmlns="http://www.w3.org/2000/svg" xmlns:xlink="http://www.w3.org/1999/xlink">
    <!-- Generator: Sketch 56 (81588) - https://sketch.com -->
    <title>Group 2</title>
    <desc>Created with Sketch.</desc>
    <g id="Medals" stroke="none" stroke-width="1" fill="none" fill-rule="evenodd">
        <g id="Group-2" transform="translate(-25.000000, -17.000000)">
            <g id="diploma" transform="translate(196.000000, 132.000000) rotate(-24.000000) translate(-196.000000, -132.000000) translate(9.000000, 71.000000)">
                <path d="M184.303938,57.097663 L215.174846,57.1051108 C209.49723,61.520687 206.659727,69.137315 206.662338,79.9549949 C206.664949,90.7726748 209.507255,103.059419 215.189256,116.815226 L193.838829,100.387239 L184.318347,116.807778 C180.658483,104.496714 178.827407,93.6048752 178.82512,84.1322602 C178.822835,74.6596453 180.649108,65.6481129 184.303938,57.097663 Z" id="Rectangle" fill="#E9406A" transform="translate(197.007188, 86.956444) rotate(-29.000000) translate(-197.007188, -86.956444) "></path>
                <path d="M41.6866292,2.24651328 C99.1984161,8.29059417 150.099653,11.3126346 194.390339,11.3126346 C260.826369,11.3126346 330.553736,-1.6389673 356.5778,11.3126346 C382.601863,24.2642365 376.095847,68.299683 356.018292,76.0706442 C335.940737,83.8416053 220.171485,68.299683 194.390339,68.299683 C177.202909,68.299683 126.301672,70.8900034 41.6866292,76.0706442 C58.6231774,69.1631231 66.4303965,56.6432413 65.1082865,38.5109986 C63.7861764,20.3787559 55.9789573,8.29059417 41.6866292,2.24651328 Z" id="Rectangle" fill="#EED08C"></path>
                <path d="M30.6383975,33.730088 L11.6923958,36.7681516 C12.3931852,26.679294 14.8388655,19.5572575 19.0294366,15.4020419 C25.3152933,9.16921844 34.3818924,7.98114025 47.3087463,15.3949384 C60.2356001,22.8087365 66.2912618,37.2946358 64.6660928,50.8925879 C63.0409238,64.49054 57.0938005,67.267669 47.2951028,69.6957865 C37.4964052,72.123904 29.1155487,58.3451543 27.3657847,50.9019573 C25.6160207,43.4587604 34.0617796,32.8734345 41.2884155,29.4530331 C48.5150515,26.0326317 50.4030881,32.2165577 53.2736552,37.3351419 C56.1442224,42.4537261 52.1283366,55.9019099 45.1007423,55.9036752 C38.073148,55.9054405 36.5567822,46.6547504 38.922087,45.6630896 C43.5846813,45.440157 47.2322941,50.734076 47.3011417,45.6609849 C47.3699894,40.5878938 41.761666,39.6444674 38.720795,39.9836524 C35.6799239,40.3228373 31.360897,45.5735861 33.6838358,51.0054721 C36.0067747,56.4373581 42.3020359,60.4301155 47.2977868,59.0136525 C52.2935377,57.5971895 57.2998159,54.1482699 57.0992856,45.4367623 C56.8987554,36.7252546 55.481647,29.0639895 45.2114618,25.428085 C38.3646717,23.0041487 33.5069836,25.771483 30.6383975,33.730088 Z" id="Path" fill="#EED08C" transform="translate(38.308677, 40.125079) rotate(31.000000) translate(-38.308677, -40.125079) "></path>
                <path d="M181.461496,12.0103113 L208.461496,12.0103113 C214.461496,21.2416039 217.461496,30.8742569 217.461496,40.9082705 C217.461496,50.9422841 214.461496,60.9762977 208.461496,71.0103113 L181.461496,71.0103113 C188.318639,61.3776583 191.74721,51.7450052 191.74721,42.1123522 C191.74721,32.4796991 188.318639,22.4456855 181.461496,12.0103113 Z" id="Rectangle" fill="#EC5A7F"></path>
            </g>
            <g id="green" transform="translate(165.000000, 71.000000)">
                <path d="M39.5,80 C17.1324676,80 -1,61.8675324 -1,39.5 C-1,17.1324676 17.1324676,-1 39.5,-1 C61.8675324,-1 80,17.1324676 80,39.5 C80,61.8675324 61.8675324,80 39.5,80 Z" id="Oval" stroke="#EED08C" stroke-width="2" fill="#E9406A"></path>
                <path d="M40.5,58 C30.2827321,58 22,49.7172679 22,39.5 C22,29.2827321 30.2827321,21 40.5,21 C50.7172679,21 59,29.2827321 59,39.5 C59,49.7172679 50.7172679,58 40.5,58 Z" id="Oval-Copy" stroke="#EED08C" stroke-width="2" fill="#E9406A"></path>
                <g id="Layer_1" transform="translate(4.000000, 5.000000)" fill="#EED08C">
                    <path d="M40.7064156,69.9221192 C40.7064156,69.9221192 36.835013,65.2478808 27.8022857,63.7312914 C19.0096364,61.6971192 8.36836364,53.1842384 5.63961039,41.2346358 C2.47792208,29.3981457 7.79961039,17.0222848 14.601974,11.2377815 C21.358987,5.16215232 27.6898442,4.21784768 27.5622078,4.13602649 C27.7150909,4.31751656 21.4365974,5.39996689 14.8528052,11.5010927 C8.21220779,17.3201325 3.15818182,29.5342053 6.36218182,41.0547682 C9.14797403,52.6884437 19.5652987,60.8381126 28.0734545,62.7313576 C30.1116623,63.0419536 31.9273247,63.5261589 33.5202078,64.0887086 C39.524026,66.2005298 41.8329351,68.9249669 41.8329351,68.9249669 L40.7064156,69.9221192 L40.7064156,69.9221192 Z" id="Shape"></path>
                    <path d="M31.2426234,69.9221192 C31.2426234,69.9221192 35.1133247,65.2478808 44.1467532,63.7312914 C52.9396364,61.6971192 63.5802078,53.1842384 66.3084935,41.2346358 C69.4704156,29.3981457 64.1491948,17.0222848 57.3470649,11.2377815 C50.5905195,5.16215232 44.2582597,4.21784768 44.3870649,4.13602649 C44.2344156,4.31751656 50.5131429,5.39996689 57.0962338,11.5010927 C63.7368312,17.3199007 68.7913247,29.5339735 65.5859221,41.0545364 C62.802,52.6882119 52.3837403,60.8378808 43.8760519,62.7311258 C41.8380779,63.0417219 40.0207792,63.5259272 38.4290649,64.0884768 C32.4247792,66.200298 30.1151688,68.9247351 30.1151688,68.9247351 L31.2426234,69.9221192 L31.2426234,69.9221192 Z" id="Shape"></path>
                    <path d="M25.1967273,56.3353974 C25.1967273,56.3353974 27.6594545,57.1751656 28.4755325,59.1231126 C29.4963896,61.5571192 29.0548052,63.5952318 29.0548052,63.5952318 C29.0548052,63.5952318 26.5878701,62.322947 25.7617403,61.0026821 C24.602026,59.1506954 25.1967273,56.3353974 25.1967273,56.3353974" id="Shape"></path>
                    <path d="M20.8750909,67.0270861 C20.8750909,67.0270861 23.3656364,67.7852649 25.1827013,66.6856623 C27.4509351,65.3137086 28.3032468,63.4088742 28.3032468,63.4088742 C28.3032468,63.4088742 25.552987,62.9979139 24.1029351,63.5824834 C22.0637922,64.4039404 20.8750909,67.0270861 20.8750909,67.0270861" id="Shape"></path>
                    <path d="M21.3643636,54.2367881 C21.3643636,54.2367881 23.5972987,55.462947 24.0505714,57.4806623 C24.6176883,60.002053 23.8415844,61.8934437 23.8415844,61.8934437 C23.8415844,61.8934437 21.6792468,60.250298 21.1083896,58.8373179 C20.3063377,56.8529801 21.3643636,54.2367881 21.3643636,54.2367881" id="Shape"></path>
                    <path d="M15.3582078,63.8270199 C15.3582078,63.8270199 17.6318182,64.9783113 19.5739481,64.2238411 C21.9978701,63.2825497 23.1482338,61.5877152 23.1482338,61.5877152 C23.1482338,61.5877152 20.5644156,60.7268543 19.0631688,61.0460265 C16.9562338,61.4959272 15.3582078,63.8270199 15.3582078,63.8270199" id="Shape"></path>
                    <path d="M17.920987,51.5162914 C17.920987,51.5162914 19.864987,53.0759934 19.9566234,55.0997351 C20.0718701,57.6276159 18.9981818,59.3233775 18.9981818,59.3233775 C18.9981818,59.3233775 17.1928052,57.372649 16.8847013,55.9116887 C16.4498961,53.8619868 17.920987,51.5162914 17.920987,51.5162914" id="Shape"></path>
                    <path d="M10.4792727,59.7568212 C10.4792727,59.7568212 12.4747013,61.2523179 14.479013,60.8524834 C16.9800779,60.3522848 18.3808052,58.9112583 18.3808052,58.9112583 C18.3808052,58.9112583 16.0337922,57.6440728 14.5313766,57.699702 C12.4211688,57.777351 10.4792727,59.7568212 10.4792727,59.7568212" id="Shape"></path>
                    <path d="M15.0000779,48.2137748 C15.0000779,48.2137748 16.6095584,50.046755 16.3496104,52.0157947 C16.0281818,54.4755298 14.7017922,55.9297682 14.7017922,55.9297682 C14.7017922,55.9297682 13.2942857,53.7421523 13.2461299,52.2811921 C13.1804416,50.2298675 15.0000779,48.2137748 15.0000779,48.2137748" id="Shape"></path>
                    <path d="M6.40519481,54.911755 C6.40519481,54.911755 8.07381818,56.6918874 10.0764935,56.6429801 C12.5775584,56.5827152 14.1758182,55.4274834 14.1758182,55.4274834 C14.1758182,55.4274834 12.1284935,53.8096026 10.6695584,53.6088742 C8.61872727,53.3281788 6.40519481,54.911755 6.40519481,54.911755" id="Shape"></path>
                    <path d="M12.6818182,44.468543 C12.6818182,44.468543 13.9207792,46.5094371 13.3326234,48.3660596 C12.5988312,50.6850993 11.0690649,51.8662914 11.0690649,51.8662914 C11.0690649,51.8662914 10.0856104,49.5187417 10.292026,48.0988079 C10.5786234,46.1075166 12.6818182,44.468543 12.6818182,44.468543" id="Shape"></path>
                    <path d="M3.23649351,49.4828146 C3.23649351,49.4828146 4.54207792,51.4815232 6.48257143,51.7728808 C8.90696104,52.1372517 10.6480519,51.2928477 10.6480519,51.2928477 C10.6480519,51.2928477 8.94974026,49.3852318 7.57542857,48.9462252 C5.64381818,48.3278146 3.23649351,49.4828146 3.23649351,49.4828146" id="Shape"></path>
                    <path d="M11.0826234,40.3999669 C11.0826234,40.3999669 11.9279221,42.5780795 11.0412468,44.2708278 C9.93553247,46.3856623 8.25709091,47.2666887 8.25709091,47.2666887 C8.25709091,47.2666887 7.71054545,44.8345364 8.15212987,43.5001325 C8.77114286,41.627053 11.0826234,40.3999669 11.0826234,40.3999669" id="Shape"></path>
                    <path d="M1.10641558,43.645 C1.10641558,43.645 2.02348052,45.7950662 3.84592208,46.4037417 C6.12374026,47.1630795 7.94851948,46.6424834 7.94851948,46.6424834 C7.94851948,46.6424834 6.63825974,44.5151325 5.38807792,43.8575497 C3.62828571,42.9364238 1.10641558,43.645 1.10641558,43.645" id="Shape"></path>
                    <path d="M10.2024935,36.1339073 C10.2024935,36.1339073 10.6438442,38.3794702 9.49792208,39.8624503 C8.06774026,41.7181457 6.29555844,42.2846358 6.29555844,42.2846358 C6.29555844,42.2846358 6.18662338,39.845298 6.84233766,38.6314238 C7.76057143,36.9273179 10.2024935,36.1339073 10.2024935,36.1339073" id="Shape"></path>
                    <path d="M0.0158961039,37.5828146 C0.0158961039,37.5828146 0.532753247,39.8121523 2.18688312,40.7077815 C4.25337662,41.8252318 6.10644156,41.6307616 6.10644156,41.6307616 C6.10644156,41.6307616 5.20550649,39.3562252 4.11077922,38.5115894 C2.57212987,37.3246026 0.0158961039,37.5828146 0.0158961039,37.5828146" id="Shape"></path>
                    <path d="M10.0790649,31.7551987 C10.0790649,31.7551987 10.1197403,33.9968212 8.75828571,35.2354967 C7.06020779,36.7838411 5.25319481,37.0320861 5.25319481,37.0320861 C5.25319481,37.0320861 5.56714286,34.6599669 6.408,33.5988411 C7.58664935,32.1089073 10.0790649,31.7551987 10.0790649,31.7551987" id="Shape"></path>
                    <path d="M0,31.4341722 C0,31.4341722 0.115480519,33.673245 1.55898701,34.8166556 C3.36109091,36.2433113 5.18166234,36.3680132 5.18166234,36.3680132 C5.18166234,36.3680132 4.70407792,34.0213907 3.79285714,33.021457 C2.51041558,31.617053 0,31.4341722 0,31.4341722" id="Shape"></path>
                    <path d="M10.7107013,27.2823841 C10.7107013,27.2823841 10.3642597,29.4528477 8.83846753,30.4180132 C6.93327273,31.6267881 5.14776623,31.5609603 5.14776623,31.5609603 C5.14776623,31.5609603 5.85584416,29.3246689 6.85075325,28.4420199 C8.24353247,27.2035762 10.7107013,27.2823841 10.7107013,27.2823841" id="Shape"></path>
                    <path d="M1.03885714,25.2718543 C1.03885714,25.2718543 0.764649351,27.4527483 1.962,28.7992053 C3.45646753,30.4815232 5.19264935,30.9089404 5.19264935,30.9089404 C5.19264935,30.9089404 5.13350649,28.563245 4.42542857,27.4439404 C3.43075325,25.8721854 1.03885714,25.2718543 1.03885714,25.2718543" id="Shape"></path>
                    <path d="M12.1261558,22.920596 C12.1261558,22.920596 11.4213506,24.9570861 9.78241558,25.6311258 C7.73555844,26.4762252 6.02298701,26.1109272 6.02298701,26.1109272 C6.02298701,26.1109272 7.0927013,24.0721192 8.20192208,23.3883444 C9.75833766,22.4287417 12.1261558,22.920596 12.1261558,22.920596" id="Shape"></path>
                    <path d="M3.13597403,19.3487417 C3.13597403,19.3487417 2.49919481,21.4074834 3.42303896,22.908543 C4.57761039,24.7837086 6.17914286,25.4890397 6.17914286,25.4890397 C6.17914286,25.4890397 6.52464935,23.2161258 6.03303896,22.0159272 C5.34225974,20.3310596 3.13597403,19.3487417 3.13597403,19.3487417" id="Shape"></path>
                    <path d="M14.306961,18.8754305 C14.306961,18.8754305 13.2776883,20.7211589 11.5796104,21.0957285 C9.45981818,21.5653311 7.87044156,20.9242053 7.87044156,20.9242053 C7.87044156,20.9242053 9.25153247,19.1371192 10.4392987,18.6649669 C12.1083896,18.0006623 14.306961,18.8754305 14.306961,18.8754305" id="Shape"></path>
                    <path d="M6.2445974,13.910298 C6.2445974,13.910298 5.27633766,15.7896358 5.91007792,17.3945364 C6.70277922,19.3995033 8.12758442,20.3500662 8.12758442,20.3500662 C8.12758442,20.3500662 8.85155844,18.2146026 8.58249351,16.9736093 C8.20542857,15.2307947 6.2445974,13.910298 6.2445974,13.910298" id="Shape"></path>
                    <path d="M17.1874286,15.2725166 C17.1874286,15.2725166 15.876,16.8799669 14.1739481,16.955298 C12.0471429,17.0507947 10.6223377,16.1642053 10.6223377,16.1642053 C10.6223377,16.1642053 12.2636104,14.6724172 13.4908831,14.4169868 C15.2153766,14.0574834 17.1874286,15.2725166 17.1874286,15.2725166" id="Shape"></path>
                    <path d="M10.2574286,9.11970199 C10.2574286,9.11970199 9,10.7704967 9.33755844,12.4261589 C9.75763636,14.4957947 10.9697143,15.6533444 10.9697143,15.6533444 C10.9697143,15.6533444 12.0347532,13.7142053 11.9887013,12.4715894 C11.9237143,10.7255298 10.2574286,9.11970199 10.2574286,9.11970199" id="Shape"></path>
                    <path d="M20.6275325,12.253245 C20.6275325,12.253245 19.0837403,13.5830132 17.4282078,13.3683775 C15.3591429,13.1015894 14.1360779,12.0056954 14.1360779,12.0056954 C14.1360779,12.0056954 15.9760519,10.8428146 17.2056623,10.8036424 C18.9306234,10.7468543 20.6275325,12.253245 20.6275325,12.253245" id="Shape"></path>
                    <path d="M14.9949351,5.14546358 C14.9949351,5.14546358 13.496961,6.52622517 13.5378701,8.18165563 C13.5876623,10.2492053 14.5594286,11.5715563 14.5594286,11.5715563 C14.5594286,11.5715563 15.9206494,9.8797351 16.0884935,8.67235099 C16.3267013,6.97635762 14.9949351,5.14546358 14.9949351,5.14546358" id="Shape"></path>
                    <path d="M24.5223117,9.88761589 C24.5223117,9.88761589 22.8045974,10.9114238 21.243974,10.4244371 C19.2922597,9.81784768 18.2999221,8.5536755 18.2999221,8.5536755 C18.2999221,8.5536755 20.2766494,7.74241722 21.4686234,7.9118543 C23.1421558,8.14943709 24.5223117,9.88761589 24.5223117,9.88761589" id="Shape"></path>
                    <path d="M20.3056364,2.07821192 C20.3056364,2.07821192 18.6248571,3.15903974 18.3796364,4.76254967 C18.0727013,6.76612583 18.7840519,8.20645695 18.7840519,8.20645695 C18.7840519,8.20645695 20.3879221,6.80228477 20.7565714,5.66675497 C21.2771688,4.07043046 20.3056364,2.07821192 20.3056364,2.07821192" id="Shape"></path>
                    <path d="M28.7027532,8.2484106 C28.7027532,8.2484106 26.8697922,8.94655629 25.4470909,8.21364238 C23.6671948,7.29877483 22.9275584,5.9110596 22.9275584,5.9110596 C22.9275584,5.9110596 24.9727792,5.4618543 26.096026,5.82599338 C27.6697403,6.33824503 28.7027532,8.2484106 28.7027532,8.2484106" id="Shape"></path>
                    <path d="M25.974,0 C25.974,0 24.1646494,0.758178808 23.6543377,2.26596026 C23.0156883,4.14738411 23.4521299,5.6563245 23.4521299,5.6563245 C23.4521299,5.6563245 25.2409091,4.57364238 25.7928312,3.53917219 C26.5691688,2.08586093 25.974,0 25.974,0" id="Shape"></path>
                    <path d="M26.0541818,4.64433775 C26.0541818,4.64433775 27.4072208,5.40251656 28.6076104,4.99364238 C30.1076883,4.48301325 30.8501299,3.48006623 30.8501299,3.48006623 C30.8501299,3.48006623 29.3011948,2.89248344 28.3801558,3.04708609 C27.0862597,3.26728477 26.0541818,4.64433775 26.0541818,4.64433775" id="Shape"></path>
                    <path d="M46.7497403,56.3353974 C46.7497403,56.3353974 44.2863117,57.1751656 43.4709351,59.1231126 C42.451013,61.5571192 42.8914286,63.5952318 42.8914286,63.5952318 C42.8914286,63.5952318 45.3595325,62.322947 46.1854286,61.0026821 C47.3465455,59.1506954 46.7497403,56.3353974 46.7497403,56.3353974" id="Shape"></path>
                    <path d="M51.0720779,67.0270861 C51.0720779,67.0270861 48.5822338,67.7852649 46.7644675,66.6856623 C44.4967013,65.3137086 43.6439221,63.4088742 43.6439221,63.4088742 C43.6439221,63.4088742 46.3946494,62.9979139 47.8447013,63.5824834 C49.8824416,64.4039404 51.0720779,67.0270861 51.0720779,67.0270861" id="Shape"></path>
                    <path d="M50.5835065,54.2367881 C50.5835065,54.2367881 48.3494026,55.462947 47.8972987,57.4806623 C47.3297143,60.002053 48.1060519,61.8934437 48.1060519,61.8934437 C48.1060519,61.8934437 50.2683896,60.250298 50.8387792,58.8373179 C51.6403636,56.8529801 50.5835065,54.2367881 50.5835065,54.2367881" id="Shape"></path>
                    <path d="M56.5887273,63.8270199 C56.5887273,63.8270199 54.3151169,64.9783113 52.3743896,64.2238411 C49.9485974,63.2825497 48.7987013,61.5877152 48.7987013,61.5877152 C48.7987013,61.5877152 51.382987,60.7268543 52.8837662,61.0460265 C54.9911688,61.4959272 56.5887273,63.8270199 56.5887273,63.8270199" id="Shape"></path>
                    <path d="M54.0257143,51.5162914 C54.0257143,51.5162914 52.0824156,53.0759934 51.9905455,55.0997351 C51.8750649,57.6276159 52.9487532,59.3233775 52.9487532,59.3233775 C52.9487532,59.3233775 54.7543636,57.372649 55.062,55.9116887 C55.4968052,53.8619868 54.0257143,51.5162914 54.0257143,51.5162914" id="Shape"></path>
                    <path d="M61.4676623,59.7568212 C61.4676623,59.7568212 59.4712987,61.2523179 57.4686234,60.8524834 C54.9666234,60.3522848 53.5665974,58.9112583 53.5665974,58.9112583 C53.5665974,58.9112583 55.9136104,57.6440728 57.4153247,57.699702 C59.5264675,57.777351 61.4676623,59.7568212 61.4676623,59.7568212" id="Shape"></path>
                    <path d="M56.9468571,48.2137748 C56.9468571,48.2137748 55.3380779,50.046755 55.5977922,52.0157947 C55.9187532,54.4755298 57.2463117,55.9297682 57.2463117,55.9297682 C57.2463117,55.9297682 58.6531169,53.7421523 58.701039,52.2811921 C58.7671948,50.2298675 56.9468571,48.2137748 56.9468571,48.2137748" id="Shape"></path>
                    <path d="M65.5433766,54.911755 C65.5433766,54.911755 63.8728831,56.6918874 61.8713766,56.6429801 C59.3698442,56.5827152 57.7711169,55.4274834 57.7711169,55.4274834 C57.7711169,55.4274834 59.8191429,53.8096026 61.2778442,53.6088742 C63.3293766,53.3281788 65.5433766,54.911755 65.5433766,54.911755" id="Shape"></path>
                    <path d="M59.2658182,44.468543 C59.2658182,44.468543 58.0273247,46.5094371 58.6147792,48.3660596 C59.3485714,50.6850993 60.8785714,51.8662914 60.8785714,51.8662914 C60.8785714,51.8662914 61.8613247,49.5187417 61.6549091,48.0988079 C61.369013,46.1075166 59.2658182,44.468543 59.2658182,44.468543" id="Shape"></path>
                    <path d="M68.7113766,49.4828146 C68.7113766,49.4828146 67.4048571,51.4815232 65.4645974,51.7728808 C63.0406753,52.1372517 61.2998182,51.2928477 61.2998182,51.2928477 C61.2998182,51.2928477 62.996961,49.3852318 64.3722078,48.9462252 C66.3042857,48.3278146 68.7113766,49.4828146 68.7113766,49.4828146" id="Shape"></path>
                    <path d="M60.8638442,40.3999669 C60.8638442,40.3999669 60.019013,42.5780795 60.9061558,44.2708278 C62.0111688,46.3856623 63.6893766,47.2666887 63.6893766,47.2666887 C63.6893766,47.2666887 64.2356883,44.8345364 63.7952727,43.5001325 C63.1757922,41.627053 60.8638442,40.3999669 60.8638442,40.3999669" id="Shape"></path>
                    <path d="M70.8414545,43.645 C70.8414545,43.645 69.9234545,45.7950662 68.1014805,46.4037417 C65.8236623,47.1630795 63.9988831,46.6424834 63.9988831,46.6424834 C63.9988831,46.6424834 65.3084416,44.5151325 66.5593247,43.8575497 C68.3179481,42.9364238 70.8414545,43.645 70.8414545,43.645" id="Shape"></path>
                    <path d="M61.7449091,36.1339073 C61.7449091,36.1339073 61.3037922,38.3794702 62.4492468,39.8624503 C63.8810649,41.7181457 65.6518442,42.2846358 65.6518442,42.2846358 C65.6518442,42.2846358 65.761013,39.845298 65.106,38.6314238 C64.1868312,36.9273179 61.7449091,36.1339073 61.7449091,36.1339073" id="Shape"></path>
                    <path d="M71.9315065,37.5828146 C71.9315065,37.5828146 71.4146494,39.8121523 69.7600519,40.7077815 C67.6935584,41.8252318 65.8404935,41.6307616 65.8404935,41.6307616 C65.8404935,41.6307616 66.7414286,39.3562252 67.8366234,38.5115894 C69.3752727,37.3246026 71.9315065,37.5828146 71.9315065,37.5828146" id="Shape"></path>
                    <path d="M61.8674026,31.7551987 C61.8674026,31.7551987 61.8283636,33.9968212 63.1895844,35.2354967 C64.8867273,36.7838411 66.6946753,37.0320861 66.6946753,37.0320861 C66.6946753,37.0320861 66.380961,34.6599669 65.5394026,33.5988411 C64.3598182,32.1089073 61.8674026,31.7551987 61.8674026,31.7551987" id="Shape"></path>
                    <path d="M71.9474026,31.4341722 C71.9474026,31.4341722 71.8321558,33.673245 70.3884156,34.8166556 C68.5849091,36.2433113 66.7657403,36.3680132 66.7657403,36.3680132 C66.7657403,36.3680132 67.2428571,34.0213907 68.1540779,33.021457 C69.4362857,31.617053 71.9474026,31.4341722 71.9474026,31.4341722" id="Shape"></path>
                    <path d="M61.2367013,27.2823841 C61.2367013,27.2823841 61.5815065,29.4528477 63.1084675,30.4180132 C65.0145974,31.6267881 66.7996364,31.5609603 66.7996364,31.5609603 C66.7996364,31.5609603 66.0906234,29.3246689 65.0957143,28.4420199 C63.7038701,27.2035762 61.2367013,27.2823841 61.2367013,27.2823841" id="Shape"></path>
                    <path d="M70.9092468,25.2718543 C70.9092468,25.2718543 71.1813506,27.4527483 69.9849351,28.7992053 C68.4897662,30.4815232 66.7542857,30.9089404 66.7542857,30.9089404 C66.7542857,30.9089404 66.8134286,28.563245 67.5224416,27.4439404 C68.5168831,25.8721854 70.9092468,25.2718543 70.9092468,25.2718543" id="Shape"></path>
                    <path d="M59.8203117,22.920596 C59.8203117,22.920596 60.5267532,24.9570861 62.1647532,25.6311258 C64.2118442,26.4762252 65.9234805,26.1109272 65.9234805,26.1109272 C65.9234805,26.1109272 64.8547013,24.0721192 63.7443117,23.3883444 C62.1876623,22.4287417 59.8203117,22.920596 59.8203117,22.920596" id="Shape"></path>
                    <path d="M68.8116623,19.3487417 C68.8116623,19.3487417 69.4472727,21.4074834 68.522961,22.908543 C67.3695584,24.7837086 65.768026,25.4890397 65.768026,25.4890397 C65.768026,25.4890397 65.4225195,23.2161258 65.9141299,22.0159272 C66.6049091,20.3310596 68.8116623,19.3487417 68.8116623,19.3487417" id="Shape"></path>
                    <path d="M57.6395065,18.8754305 C57.6395065,18.8754305 58.6697143,20.7211589 60.3663896,21.0957285 C62.4866494,21.5653311 64.0764935,20.9242053 64.0764935,20.9242053 C64.0764935,20.9242053 62.6944675,19.1371192 61.5067013,18.6649669 C59.8392468,18.0006623 57.6395065,18.8754305 57.6395065,18.8754305" id="Shape"></path>
                    <path d="M65.7021039,13.910298 C65.7021039,13.910298 66.6712987,15.7896358 66.0375584,17.3945364 C65.2457922,19.3995033 63.8205195,20.3500662 63.8205195,20.3500662 C63.8205195,20.3500662 63.0956104,18.2146026 63.3651429,16.9736093 C63.7424416,15.2307947 65.7021039,13.910298 65.7021039,13.910298" id="Shape"></path>
                    <path d="M54.759039,15.2725166 C54.759039,15.2725166 56.0714026,16.8799669 57.772987,16.955298 C59.9007273,17.0507947 61.3245974,16.1642053 61.3245974,16.1642053 C61.3245974,16.1642053 59.6833247,14.6724172 58.4560519,14.4169868 C56.7322597,14.0574834 54.759039,15.2725166 54.759039,15.2725166" id="Shape"></path>
                    <path d="M61.689974,9.11970199 C61.689974,9.11970199 62.9457662,10.7704967 62.6091429,12.4261589 C62.1878961,14.4957947 60.9776883,15.6533444 60.9776883,15.6533444 C60.9776883,15.6533444 59.9117143,13.7142053 59.9582338,12.4715894 C60.0234545,10.7255298 61.689974,9.11970199 61.689974,9.11970199" id="Shape"></path>
                    <path d="M51.3196364,12.253245 C51.3196364,12.253245 52.8634286,13.5830132 54.5191948,13.3683775 C56.5884935,13.1015894 57.8108571,12.0056954 57.8108571,12.0056954 C57.8108571,12.0056954 55.9708831,10.8428146 54.7412727,10.8036424 C53.0163117,10.7468543 51.3196364,12.253245 51.3196364,12.253245" id="Shape"></path>
                    <path d="M56.9527013,5.14546358 C56.9527013,5.14546358 58.4506753,6.52622517 58.4088312,8.18165563 C58.359039,10.2492053 57.3877403,11.5715563 57.3877403,11.5715563 C57.3877403,11.5715563 56.0260519,9.8797351 55.8591429,8.67235099 C55.6211688,6.97635762 56.9527013,5.14546358 56.9527013,5.14546358" id="Shape"></path>
                    <path d="M47.4253247,9.88761589 C47.4253247,9.88761589 49.1428052,10.9114238 50.7031948,10.4244371 C52.6549091,9.81784768 53.6465455,8.5536755 53.6465455,8.5536755 C53.6465455,8.5536755 51.6721558,7.74241722 50.4787792,7.9118543 C48.8043117,8.14943709 47.4253247,9.88761589 47.4253247,9.88761589" id="Shape"></path>
                    <path d="M51.6410649,2.07821192 C51.6410649,2.07821192 53.3225455,3.15903974 53.5684675,4.76254967 C53.8744675,6.76612583 53.1633506,8.20645695 53.1633506,8.20645695 C53.1633506,8.20645695 51.5599481,6.80228477 51.1903636,5.66675497 C50.6704675,4.07043046 51.6410649,2.07821192 51.6410649,2.07821192" id="Shape"></path>
                    <path d="M43.2437143,8.2484106 C43.2437143,8.2484106 45.0773766,8.94655629 46.5005455,8.21364238 C48.279974,7.29877483 49.0196104,5.9110596 49.0196104,5.9110596 C49.0196104,5.9110596 46.9750909,5.4618543 45.8516104,5.82599338 C44.2776623,6.33824503 43.2437143,8.2484106 43.2437143,8.2484106" id="Shape"></path>
                    <path d="M45.9724675,0 C45.9724675,0 47.7822857,0.758178808 48.2935325,2.26596026 C48.9319481,4.14738411 48.4948052,5.6563245 48.4948052,5.6563245 C48.4948052,5.6563245 46.7055584,4.57364238 46.1531688,3.53917219 C45.3794026,2.08586093 45.9724675,0 45.9724675,0" id="Shape"></path>
                    <path d="M45.8932208,4.64433775 C45.8932208,4.64433775 44.5392468,5.40251656 43.3393247,4.99364238 C41.8383117,4.48301325 41.0963377,3.48006623 41.0963377,3.48006623 C41.0963377,3.48006623 42.6466753,2.89248344 43.5672468,3.04708609 C44.8597403,3.26728477 45.8932208,4.64433775 45.8932208,4.64433775" id="Shape"></path>
                </g>
            </g>
            <text id="1" fill="#EED08C" font-family="LucidaGrande, Lucida Grande" font-size="35" font-weight="normal" letter-spacing="-7.75">
                <tspan x="193.618652" y="123">1</tspan>
            </text>
        </g>
    </g>
</svg>