<?xml version="1.0" encoding="UTF-8"?>
<svg width="162px" height="90px" viewBox="0 0 162 90" version="1.1" xmlns="http://www.w3.org/2000/svg" xmlns:xlink="http://www.w3.org/1999/xlink">
    <!-- Generator: Sketch 56 (81588) - https://sketch.com -->
    <title>diploma</title>
    <desc>Created with Sketch.</desc>
    <g id="Page-1" stroke="none" stroke-width="1" fill="none" fill-rule="evenodd">
        <g id="diploma" transform="translate(82.000000, 55.000000) rotate(-24.000000) translate(-82.000000, -55.000000) translate(-7.000000, 26.000000)">
            <path d="M87.711677,27.1367296 L102.400434,27.1471565 C99.6999394,29.2456445 98.3515197,32.8669732 98.3551746,38.0111426 C98.3588294,43.155312 99.7139737,48.9987037 102.420607,55.5413177 L92.2581498,47.7244982 L87.7318507,55.5308908 C85.9876968,49.6757518 85.1140167,44.4959093 85.1108104,39.9913634 C85.1076158,35.4868175 85.9745714,31.2019395 87.711677,27.1367296 Z" id="Rectangle" fill="#E9406A" transform="translate(93.765709, 41.339024) rotate(-29.000000) translate(-93.765709, -41.339024) "></path>
            <path d="M19.7101199,1.29618946 C47.0801872,4.15917515 71.3042697,5.59066799 92.3823675,5.59066799 C123.999514,5.59066799 157.18302,-0.544301336 169.567966,5.59066799 C181.952912,11.7256373 178.856676,32.584533 169.301694,36.2655146 C159.746713,39.9464962 104.651708,32.584533 92.3823675,32.584533 C84.2028071,32.584533 59.9787246,33.8115269 19.7101199,36.2655146 C27.7702844,32.993531 31.4857682,27.0630606 30.8565713,18.4741036 C30.2273743,9.88514652 26.5118905,4.15917515 19.7101199,1.29618946 Z" id="Rectangle" fill="#EED08C"></path>
            <path d="M14.5844971,16.0363172 L5.56935413,17.4854659 C5.90512989,12.6875534 7.07042934,9.30010549 9.06525247,7.32312225 C12.0574872,4.3576474 16.3716174,3.7905522 22.5204451,7.31317741 C28.6692728,10.8358026 31.5471704,17.7231566 30.7707634,24.1900314 C29.9943564,30.6569063 27.1640922,31.9789492 22.5013443,33.1359143 C17.8385963,34.2928794 13.8542154,27.7423499 13.0234126,24.2031487 C12.1926097,20.6639474 16.2135286,15.6281412 19.6527295,13.9998934 C23.0919304,12.3716456 23.9888153,15.3119692 25.3534319,17.7454421 C26.7180486,20.178915 24.8041821,26.5751228 21.4604783,26.5775941 C18.1167746,26.5800655 17.3974415,22.1812578 18.523075,21.7091249 C20.7415719,21.6020267 22.4758632,24.1186995 22.5097987,21.7061783 C22.5437342,19.2936571 19.8755338,18.8463136 18.4286198,19.0083189 C16.9817059,19.1703242 14.9255095,21.6683174 16.0294939,24.2509079 C17.1334783,26.8334984 20.1278131,28.7307898 22.5051018,28.0560317 C24.8823905,27.3812735 27.2651601,25.7399795 27.1717714,21.5972741 C27.0783828,17.4545688 26.4059069,13.8115881 21.5202351,12.0849209 C18.2631205,10.9338095 15.9512079,12.2509415 14.5844971,16.0363172 Z" id="Path" fill="#EED08C" transform="translate(18.232150, 19.075708) rotate(31.000000) translate(-18.232150, -19.075708) "></path>
            <path d="M86.1992375,5.69970213 L98.9492375,5.69970213 C101.782571,10.0806545 103.199238,14.6520831 103.199238,19.4139878 C103.199238,24.1758926 101.782571,28.9377974 98.9492375,33.6997021 L86.1992375,33.6997021 C89.4373327,29.1282736 91.0563804,24.556845 91.0563804,19.9854164 C91.0563804,15.4139878 89.4373327,10.6520831 86.1992375,5.69970213 Z" id="Rectangle" fill="#EC5A7F"></path>
        </g>
    </g>
</svg>