<?xml version="1.0" encoding="UTF-8"?>
<svg width="359px" height="337px" viewBox="0 0 359 337" version="1.1" xmlns="http://www.w3.org/2000/svg" xmlns:xlink="http://www.w3.org/1999/xlink">
    <!-- Generator: Sketch 56 (81588) - https://sketch.com -->
    <title>electric-guitar</title>
    <desc>Created with Sketch.</desc>
    <g id="Page-1" stroke="none" stroke-width="1" fill="none" fill-rule="evenodd">
        <g id="electric-guitar" transform="translate(189.500000, 151.500000) rotate(46.000000) translate(-189.500000, -151.500000) translate(-59.000000, -97.000000)" fill-rule="nonzero">
            <path d="M239.1,287.3 L261.7,288.1 C262.6,297.2 261.9,314.4 276.9,314.4 C276.9,314.4 287.4,314.2 291.7,298.4 C296,282.6 308.2,290.8 310.8,297.2 C312.4,301.3 317.8,314.3 308.5,329.1 C308.5,329.1 296.8,350.1 301.9,361.8 C301.9,361.8 316.5,392 318.2,401.9 C323.6,432.2 313.9,452.5 301.2,459.1 C291.6,464.1 283.7,465.2 248.3,465.2 L248.3,465.2 L248.3,465.2 L248.3,465.2 L248.3,465.2 C212.9,465.2 205,464 195.4,459.1 C182.7,452.5 172.9,432.3 178.4,401.9 C180.2,392 196.2,362.6 196.2,362.6 C204.7,342.4 201.8,337.3 195.6,322.5 C189.4,307.7 186.8,287.7 189.6,277.6 C191.4,270.9 197.2,257.2 207.9,262.8 C212.2,265.1 212.6,278.9 215.9,285.2 C218.1,290 224.9,299.2 239.1,287.3 Z" id="Path" fill="#000000"></path>
            <path d="M305.5,421.4 L305.5,421.4 C302.2,421.4 298.5,417.1 294.9,413 C293.4,411.3 292,409.6 290.7,408.5 C288.7,406.7 279.5,401.6 263.6,401.6 C262.4,401.6 261.1,401.6 259.9,401.7 C254.9,401.9 250.7,402.1 246.7,402.1 C236.4,402.1 225.9,401 219.1,392.7 C210.6,382.3 220.6,358.7 221.1,357.7 L221.5,356.7 C224.8,348.8 226,345.8 228.2,337.5 C231,326.3 225.3,307.9 225.2,307.7 L225.2,307.5 C225.2,304.7 227.3,303.2 231.1,303.2 C233.3,303.2 235.2,303.7 235.3,303.7 L235.4,303.7 C236,304 237,304.8 238.5,305.9 C244.4,310.2 256.5,319.2 273.1,322.6 C274.5,322.9 276,323 277.3,323 C294.1,323 299.5,300.2 299.5,299.9 L299.5,299.8 C299.7,299.2 300.3,297.6 301.5,297.6 C303.3,297.6 304.6,301.7 304.9,303 C309.6,314.2 297.8,334.4 297.3,335.3 C290.8,347.2 294.7,364.2 294.7,364.3 C295.3,366.7 297.2,371 299.4,376 C302.5,383.1 306.4,392 309,400.4 C314.5,418.3 306.9,420.9 306.6,421 C306.4,421.3 306,421.4 305.5,421.4 Z" id="Path" fill="#F5F5F5"></path>
            <path d="M262.8,356.2 C262.8,358.2 261.1,359.9 259.1,359.9 L236.9,359.9 C234.9,359.9 233.2,358.2 233.2,356.2 L233.2,356.2 C233.2,354.2 234.9,352.5 236.9,352.5 L259.1,352.5 C261.2,352.5 262.8,354.2 262.8,356.2 L262.8,356.2 Z" id="Path" fill="#3B3633"></path>
            <path d="M262.3,327.2 L237.1,327.2 C234.8,327.2 232.9,328.9 232.9,330.9 C232.9,332.9 234.8,334.6 237.1,334.6 L262.3,334.6 C264.6,334.6 266.5,332.9 266.5,330.9 C266.5,328.9 264.6,327.2 262.3,327.2 Z" id="Path" fill="#59514D"></path>
            <g id="Group" transform="translate(233.000000, 373.000000)" fill="#3B3633">
                <path d="M29.8,4.4 C29.8,6.4 28.1,8.1 26.1,8.1 L3.9,8.1 C1.9,8.1 0.2,6.4 0.2,4.4 L0.2,4.4 C0.2,2.4 1.9,0.7 3.9,0.7 L26.1,0.7 C28.2,0.7 29.8,2.4 29.8,4.4 L29.8,4.4 Z" id="Path"></path>
                <path d="M29.8,12.2 C29.8,14.2 28.1,15.9 26.1,15.9 L3.9,15.9 C1.9,15.9 0.2,14.2 0.2,12.2 L0.2,12.2 C0.2,10.2 1.9,8.5 3.9,8.5 L26.1,8.5 C28.2,8.5 29.8,10.1 29.8,12.2 L29.8,12.2 Z" id="Path"></path>
                <circle id="Oval" cx="69.9" cy="36.1" r="4.9"></circle>
                <circle id="Oval" cx="55.9" cy="22.7" r="4.9"></circle>
                <circle id="Oval" cx="39.2" cy="13.5" r="4.9"></circle>
            </g>
            <g id="Group" transform="translate(228.000000, 36.000000)" fill="#CED6E4">
                <path d="M4.2,49.9 C5.7,50.3 6.7,52 6.2,53.7 C5.8,55.4 4.2,56.5 2.6,56.1 C1.1,55.7 0.1,54 0.6,52.3 C1,50.5 2.6,49.5 4.2,49.9 Z" id="Path"></path>
                <rect id="Rectangle" transform="translate(6.527936, 53.772153) rotate(104.051529) translate(-6.527936, -53.772153) " x="5.47791233" y="50.5720793" width="2.10004814" height="6.40014672"></rect>
                <ellipse id="Oval" transform="translate(5.816440, 43.208430) rotate(-165.966536) translate(-5.816440, -43.208430) " cx="5.8164396" cy="43.2084297" rx="2.90013672" ry="3.20015086"></ellipse>
                <rect id="Rectangle" transform="translate(8.934375, 43.936305) rotate(104.034854) translate(-8.934375, -43.936305) " x="7.88442766" y="40.7364649" width="2.09989527" height="6.39968082"></rect>
                <ellipse id="Oval" transform="translate(8.236751, 33.402600) rotate(-165.983212) translate(-8.236751, -33.402600) " cx="8.2367514" cy="33.4025998" rx="2.89992588" ry="3.19991821"></ellipse>
                <rect id="Rectangle" transform="translate(11.331218, 34.200992) rotate(104.022347) translate(-11.331218, -34.200992) " x="10.2812197" y="31.0009959" width="2.0999972" height="6.39999146"></rect>
                <path d="M11.5,20.6 C13,21 14,22.7 13.5,24.4 C13.1,26.1 11.5,27.2 9.9,26.8 C8.4,26.4 7.4,24.7 7.9,23 C8.3,21.3 9.9,20.2 11.5,20.6 Z" id="Path"></path>
                <rect id="Rectangle" transform="translate(13.857665, 24.387697) rotate(104.009842) translate(-13.857665, -24.387697) " x="12.807615" y="21.187546" width="2.10009922" height="6.40030239"></rect>
                <ellipse id="Oval" transform="translate(13.129795, 13.931373) rotate(-165.966536) translate(-13.129795, -13.931373) " cx="13.1297945" cy="13.9313726" rx="2.90013672" ry="3.20015086"></ellipse>
                <rect id="Rectangle" transform="translate(16.259561, 14.652830) rotate(104.022347) translate(-16.259561, -14.652830) " x="15.2095628" y="11.4528344" width="2.0999972" height="6.39999146"></rect>
                <ellipse id="Oval" transform="translate(15.554466, 4.124468) rotate(-165.965146) translate(-15.554466, -4.124468) " cx="15.5544656" cy="4.124468" rx="2.89985537" ry="3.19984041"></ellipse>
                <rect id="Rectangle" transform="translate(18.653194, 4.919225) rotate(104.022347) translate(-18.653194, -4.919225) " x="17.6031955" y="1.71922887" width="2.0999972" height="6.39999146"></rect>
            </g>
            <path d="M247.8,323.201935 C253.9,323.1 261.1,321.9 261,317.2 L257.3,115.3 C257.3,115.3 257.6,92.5 271.9,86.5 C271.9,86.5 268.5,73.6 267,65.8 C265.5,58.1 260.3,43.4 271.1,44.2 C271.1,44.2 271.5,30.8 260.7,28.6 C260.7,28.6 253.1,25.2 247.7,43.9 L233.7,98.9 C233.7,98.9 240,104.2 239,113.3 C239,113.3 235.3,315.1 235.3,317.3 C235.3,319.5 238.8,323.3 247.8,323.201935 Z" id="Path" fill="#542A14"></path>
            <g id="Group" transform="translate(232.000000, 114.000000)" fill="#59514D">
                <path d="M25.3,1.3 C25.3,1.3 25.3,1 25.3,0.5 L7,0.5 C7,0.8 7,1.2 7,1.7 L25.3,1.7 L25.3,1.3 Z" id="Path"></path>
                <path d="M25.6,17.4 L6.7,17.4 C6.7,17.8 6.7,18.2 6.7,18.6 L25.6,18.6 L25.6,17.4 Z" id="Path"></path>
                <path d="M25.9,32.4 L6.4,32.4 C6.4,32.8 6.4,33.2 6.4,33.6 L25.9,33.6 L25.9,32.4 Z" id="Path"></path>
                <path d="M6.1,46.4 C6.1,46.8 6.1,47.2 6.1,47.6 L26.1,47.6 L26.1,46.4 L6.1,46.4 Z" id="Path"></path>
                <path d="M26.4,60 L5.9,60 C5.9,60.4 5.9,60.8 5.9,61.2 L26.4,61.2 L26.4,60 Z" id="Path"></path>
                <path d="M26.6,72.3 L5.7,72.3 C5.7,72.7 5.7,73.1 5.7,73.5 L26.6,73.5 L26.6,72.3 Z" id="Path"></path>
                <path d="M5.5,85.5 L26.9,85.5 L26.9,84.3 L5.6,84.3 C5.5,84.7 5.5,85.1 5.5,85.5 Z" id="Path"></path>
                <path d="M5.3,96.6 L27.1,96.6 L27.1,95.4 L5.3,95.4 C5.3,95.8 5.3,96.2 5.3,96.6 Z" id="Path"></path>
                <path d="M5.1,107.1 L27.3,107.1 L27.3,105.9 L5.1,105.9 C5.1,106.3 5.1,106.7 5.1,107.1 Z" id="Path"></path>
                <path d="M4.9,116.6 L27.4,116.6 L27.4,115.4 L4.9,115.4 C4.9,115.9 4.9,116.3 4.9,116.6 Z" id="Path"></path>
                <path d="M4.7,126.2 L27.6,126.2 L27.6,125 L4.8,125 C4.7,125.4 4.7,125.8 4.7,126.2 Z" id="Path"></path>
                <path d="M4.5,135.9 L27.7,135.9 L27.7,134.7 L4.5,134.7 C4.5,135.1 4.5,135.5 4.5,135.9 Z" id="Path"></path>
                <path d="M4.4,144.3 L27.9,144.3 L27.9,143.1 L4.4,143.1 C4.4,143.5 4.4,143.9 4.4,144.3 Z" id="Path"></path>
                <path d="M4.2,151.7 L28.1,151.7 L28.1,150.5 L4.3,150.5 C4.3,150.9 4.3,151.3 4.2,151.7 Z" id="Path"></path>
                <path d="M4.1,158.9 L28.2,158.9 L28.2,157.7 L4.2,157.7 C4.1,158.1 4.1,158.5 4.1,158.9 Z" id="Path"></path>
                <path d="M4,166.1 L28.2,166.1 L28.2,164.9 L4.1,164.9 C4,165.3 4,165.7 4,166.1 Z" id="Path"></path>
                <path d="M3.8,173.1 L28.4,173.1 L28.4,171.9 L3.8,171.9 C3.9,172.3 3.9,172.7 3.8,173.1 Z" id="Path"></path>
                <path d="M3.8,179.1 L28.6,179.1 L28.6,177.9 L3.8,177.9 C3.8,178.3 3.8,178.7 3.8,179.1 Z" id="Path"></path>
                <path d="M3.8,185.3 L28.8,185.3 L28.8,184.1 L3.8,184.1 C3.8,184.5 3.8,184.9 3.8,185.3 Z" id="Path"></path>
                <path d="M3.6,191.1 L28.9,191.1 L28.9,189.9 L3.7,189.9 C3.6,190.4 3.6,190.8 3.6,191.1 Z" id="Path"></path>
                <path d="M3.5,196.2 L28.9,196.2 L28.9,195 L3.5,195 C3.5,195.4 3.5,195.8 3.5,196.2 Z" id="Path"></path>
                <path d="M3.4,201.5 L29,201.5 L29,200.3 L3.4,200.3 C3.4,200.7 3.4,201.1 3.4,201.5 Z" id="Path"></path>
                <path d="M4.4,205.7 L28.1,205.7 C28.4,205.3 28.6,205 28.7,204.5 L3.6,204.5 C3.8,204.9 4.1,205.3 4.4,205.7 Z" id="Path"></path>
                <path d="M32.4,297.7 C32.4,298.4 31.8,299 31,299 L1.6,299 C0.8,299 0.2,298.4 0.2,297.7 L0.2,283 C0.2,282.3 0.8,281.7 1.6,281.7 L31,281.7 C31.8,281.7 32.4,282.3 32.4,283 L32.4,297.7 Z" id="Path"></path>
            </g>
            <path d="M263,413.6 L233.6,413.6 C232.5,413.6 231.6,412.8 231.6,411.7 L231.6,397 C231.6,396 232.5,395.1 233.6,395.1 L263,395.1 C264.1,395.1 265,395.9 265,397 L265,411.7 C265,412.7 264.1,413.6 263,413.6 Z M233.6,396.3 C233.1,396.3 232.7,396.6 232.7,397 L232.7,411.7 C232.7,412.1 233.1,412.4 233.6,412.4 L263,412.4 C263.5,412.4 263.9,412.1 263.9,411.7 L263.9,397 C263.9,396.6 263.5,396.3 263,396.3 L233.6,396.3 Z" id="Shape" fill="#E2DBD7"></path>
            <path d="M251.4,466.8 L250.6,464.1 C250.5,463.8 250.2,463.6 249.9,463.6 L246.1,463.6 C245.8,463.6 245.5,463.8 245.4,464.1 L244.6,466.9 C244.5,467.1 244.6,467.3 244.7,467.5 C244.8,467.7 245,467.8 245.3,467.8 L250.7,467.8 L250.7,467.8 C251.1,467.8 251.4,467.5 251.4,467.1 C251.5,467 251.4,466.9 251.4,466.8 Z" id="Path" fill="#000000"></path>
            <g id="Group" transform="translate(236.000000, 43.000000)" fill="#E5DFDC">
                <rect id="Rectangle" x="10.2" y="33.2" width="1" height="336.4"></rect>
                <rect id="Rectangle" transform="translate(14.088663, 196.035005) rotate(-90.024064) translate(-14.088663, -196.035005) " x="-159.711352" y="195.735005" width="347.600031" height="1"></rect>
                <rect id="Rectangle" transform="translate(17.885835, 190.402730) rotate(-90.349500) translate(-17.885835, -190.402730) " x="-161.270998" y="190.102724" width="358.313666" height="1"></rect>
                <rect id="Rectangle" transform="translate(21.890146, 185.276320) rotate(-90.590185) translate(-21.890146, -185.276320) " x="-162.642689" y="184.976334" width="369.065671" height="1"></rect>
                <rect id="Rectangle" transform="translate(3.199616, 211.950855) rotate(-179.232206) translate(-3.199616, -211.950855) " x="2.89961926" y="54.3039653" width="1" height="315.293779"></rect>
                <rect id="Rectangle" transform="translate(6.892849, 207.005319) rotate(-179.427004) translate(-6.892849, -207.005319) " x="6.5928638" y="44.1214626" width="1" height="325.767712"></rect>
            </g>
            <g id="Group" transform="translate(237.000000, 40.000000)" fill="#CED6E4">
                <circle id="Oval" cx="17.5" cy="3.4" r="3.1"></circle>
                <circle id="Oval" cx="14.4" cy="14.3" r="3.1"></circle>
                <circle id="Oval" cx="11.9" cy="25.2" r="3.1"></circle>
                <circle id="Oval" cx="9.3" cy="35.8" r="3.1"></circle>
                <circle id="Oval" cx="6.3" cy="46.7" r="3.1"></circle>
                <path d="M0.8,57.2 C0.8,55.5 2.1,54.1 3.8,54.1 C5.5,54.1 6.9,55.4 6.9,57.1 C6.9,58.8 5.6,60.2 3.9,60.2 C2.2,60.2 0.8,58.9 0.8,57.2 Z" id="Path"></path>
            </g>
        </g>
    </g>
</svg>