<?xml version="1.0" encoding="UTF-8"?>
<svg width="284px" height="216px" viewBox="0 0 284 216" version="1.1" xmlns="http://www.w3.org/2000/svg" xmlns:xlink="http://www.w3.org/1999/xlink">
    <!-- Generator: Sketch 56 (81588) - https://sketch.com -->
    <title>flag</title>
    <desc>Created with Sketch.</desc>
    <g id="Page-1" stroke="none" stroke-width="1" fill="none" fill-rule="evenodd">
        <g id="flag">
            <path d="M0,10.4146877 C15.9381898,29.2443716 31.8763797,38.6592136 47.8145695,38.6592136 C63.7527594,38.6592136 79.4812362,34.2656207 95,25.4784348 L95,200.594495 C79.3898493,211.789743 63.6613725,216.183336 47.8145695,213.775274 C31.9677666,211.367212 16.0295767,202.161589 0,186.158404 L0,10.4146877 Z" id="Rectangle" fill="#009F3C"></path>
            <path d="M95,24.5434036 C110.84822,11.5333125 126.514886,3.78660113 142,1.30326966 C157.485114,-1.18006181 173.15178,1.54175568 189,9.46872213 L189,185.340006 C174.512101,178.032369 158.845435,175.729293 142,178.430777 C125.154565,181.132262 109.487899,188.460232 95,200.414688 L95,24.5434036 Z" id="Rectangle-Copy-6" fill="#FFFFFF"></path>
            <path d="M189,8.32426218 C207.255791,20.1565541 224.14468,27.9933811 239.666667,31.834743 C255.188654,35.6761048 269.966432,35.6761048 284,31.834743 L284,201.491456 C267.839572,212.876479 252.006238,217.324408 236.5,214.835242 C220.993762,212.346076 205.160428,202.8148 189,186.241414 L189,8.32426218 Z" id="Rectangle-Copy-7" fill="#FF6F00"></path>
        </g>
    </g>
</svg>