<?xml version="1.0" encoding="UTF-8"?>
<svg width="216px" height="207px" viewBox="0 0 216 207" version="1.1" xmlns="http://www.w3.org/2000/svg" xmlns:xlink="http://www.w3.org/1999/xlink">
    <!-- Generator: Sketch 56 (81588) - https://sketch.com -->
    <title>gold</title>
    <desc>Created with Sketch.</desc>
    <g id="Page-1" stroke="none" stroke-width="1" fill="none" fill-rule="evenodd">
        <g id="gold" transform="translate(0.000000, -5.000000)">
            <path d="M108,209 C167.646753,209 216,172.549909 216,100.864702 C216,29.1794945 167.242259,57.5295764 107.595506,57.5295764 C47.9487526,57.5295764 0,29.1794945 0,100.864702 C0,172.549909 48.353247,209 108,209 Z" id="Oval" fill="#555555"></path>
            <path d="M44.9080402,180.887048 C49.146533,180.884521 52.5845592,184.318449 52.5870867,188.556942 C52.5870885,188.559995 52.5870885,188.563048 52.5870867,188.566101 L52.577935,203.89266 C52.5754002,208.137696 49.1347492,211.578345 44.8897126,211.580876 C40.6512198,211.583404 37.2131936,208.149475 37.2106661,203.910983 C37.2106643,203.90793 37.2106643,203.904877 37.2106661,203.901824 L37.2198178,188.575265 C37.2223526,184.330228 40.6630036,180.88958 44.9080402,180.887048 Z" id="Rectangle" fill="#555555" transform="translate(44.898876, 196.233962) rotate(21.000000) translate(-44.898876, -196.233962) "></path>
            <path d="M171.110287,180.887048 C175.34878,180.884521 178.786806,184.318449 178.789334,188.556942 C178.789336,188.559995 178.789336,188.563048 178.789334,188.566101 L178.780182,203.89266 C178.777647,208.137696 175.336996,211.578345 171.09196,211.580876 C166.853467,211.583404 163.415441,208.149475 163.412913,203.910983 C163.412912,203.90793 163.412912,203.904877 163.412913,203.901824 L163.422065,188.575265 C163.4246,184.330228 166.865251,180.88958 171.110287,180.887048 Z" id="Rectangle-Copy-5" fill="#555555" transform="translate(171.101124, 196.233962) scale(-1, 1) rotate(21.000000) translate(-171.101124, -196.233962) "></path>
            <ellipse id="Oval" fill="#444444" cx="108" cy="52" rx="108" ry="47"></ellipse>
            <ellipse id="Oval-Copy-4" fill="#272727" cx="108" cy="52" rx="96" ry="39"></ellipse>
            <g id="Group" transform="translate(132.000000, 54.000000)">
                <ellipse id="Oval-Copy-5" fill="#E29400" cx="26" cy="14" rx="26" ry="14"></ellipse>
                <ellipse id="Oval" fill="#F9C300" cx="26" cy="11.2" rx="26" ry="11.2"></ellipse>
            </g>
            <g id="Group-Copy-2" transform="translate(122.730020, 72.167205) rotate(-10.000000) translate(-122.730020, -72.167205) translate(96.730020, 57.667205)">
                <ellipse id="Oval-Copy-5" fill="#E29400" cx="25.8876404" cy="14.1320755" rx="25.8876404" ry="14.1320755"></ellipse>
                <ellipse id="Oval" fill="#F9C300" cx="25.8876404" cy="11.3056604" rx="25.8876404" ry="11.3056604"></ellipse>
            </g>
            <g id="Group-Copy-3" transform="translate(137.355020, 50.060601) rotate(-10.000000) translate(-137.355020, -50.060601) translate(111.355020, 35.560601)">
                <ellipse id="Oval-Copy-5" fill="#E29400" cx="25.8876404" cy="14.1320755" rx="25.8876404" ry="14.1320755"></ellipse>
                <ellipse id="Oval" fill="#F9C300" cx="25.8876404" cy="11.3056604" rx="25.8876404" ry="11.3056604"></ellipse>
            </g>
            <g id="Group-Copy-4" transform="translate(83.715272, 72.416409) rotate(-10.000000) translate(-83.715272, -72.416409) translate(57.715272, 57.916409)">
                <ellipse id="Oval-Copy-5" fill="#E29400" cx="25.8876404" cy="14.1320755" rx="25.8876404" ry="14.1320755"></ellipse>
                <ellipse id="Oval" fill="#F9C300" cx="25.8876404" cy="11.3056604" rx="25.8876404" ry="11.3056604"></ellipse>
            </g>
            <g id="Group-Copy-5" transform="translate(100.741958, 55.356975) rotate(-10.000000) translate(-100.741958, -55.356975) translate(74.741958, 40.856975)">
                <ellipse id="Oval-Copy-5" fill="#E29400" cx="25.8876404" cy="14.1320755" rx="25.8876404" ry="14.1320755"></ellipse>
                <ellipse id="Oval" fill="#F9C300" cx="25.8876404" cy="11.3056604" rx="25.8876404" ry="11.3056604"></ellipse>
            </g>
            <g id="Group-Copy-6" transform="translate(53.142257, 67.564230) rotate(12.000000) translate(-53.142257, -67.564230) translate(27.142257, 53.064230)">
                <ellipse id="Oval-Copy-5" fill="#E29400" cx="25.8876404" cy="14.1320755" rx="25.8876404" ry="14.1320755"></ellipse>
                <ellipse id="Oval" fill="#F9C300" cx="25.8876404" cy="11.3056604" rx="25.8876404" ry="11.3056604"></ellipse>
            </g>
            <g id="Group-Copy-7" transform="translate(74.732203, 53.190440) rotate(-4.000000) translate(-74.732203, -53.190440) translate(48.732203, 38.690440)">
                <ellipse id="Oval-Copy-5" fill="#E29400" cx="25.8876404" cy="14.1320755" rx="25.8876404" ry="14.1320755"></ellipse>
                <ellipse id="Oval" fill="#F9C300" cx="25.8876404" cy="11.3056604" rx="25.8876404" ry="11.3056604"></ellipse>
            </g>
            <g id="Group-Copy-8" transform="translate(111.700813, 36.532384) rotate(7.000000) translate(-111.700813, -36.532384) translate(85.700813, 22.032384)">
                <ellipse id="Oval-Copy-5" fill="#E29400" cx="25.8876404" cy="14.1320755" rx="25.8876404" ry="14.1320755"></ellipse>
                <ellipse id="Oval" fill="#F9C300" cx="25.8876404" cy="11.3056604" rx="25.8876404" ry="11.3056604"></ellipse>
            </g>
            <g id="Group-Copy-9" transform="translate(55.248565, 45.207207) rotate(7.000000) translate(-55.248565, -45.207207) translate(29.248565, 30.707207)">
                <ellipse id="Oval-Copy-5" fill="#E29400" cx="25.8876404" cy="14.1320755" rx="25.8876404" ry="14.1320755"></ellipse>
                <ellipse id="Oval" fill="#F9C300" cx="25.8876404" cy="11.3056604" rx="25.8876404" ry="11.3056604"></ellipse>
            </g>
            <g id="Group-Copy-10" transform="translate(77.231641, 31.048563) rotate(-19.000000) translate(-77.231641, -31.048563) translate(51.231641, 16.548563)">
                <ellipse id="Oval-Copy-5" fill="#E29400" cx="25.8876404" cy="14.1320755" rx="25.8876404" ry="14.1320755"></ellipse>
                <ellipse id="Oval" fill="#F9C300" cx="25.8876404" cy="11.3056604" rx="25.8876404" ry="11.3056604"></ellipse>
            </g>
            <g id="Group-Copy-11" transform="translate(169.845053, 30.177926) rotate(-19.000000) translate(-169.845053, -30.177926) translate(143.845053, 15.677926)">
                <ellipse id="Oval-Copy-5" fill="#E29400" cx="25.8876404" cy="14.1320755" rx="25.8876404" ry="14.1320755"></ellipse>
                <ellipse id="Oval" fill="#F9C300" cx="25.8876404" cy="11.3056604" rx="25.8876404" ry="11.3056604"></ellipse>
            </g>
            <g id="Group-Copy-12" transform="translate(127.209417, 22.453210) rotate(19.000000) translate(-127.209417, -22.453210) translate(101.209417, 7.953210)">
                <ellipse id="Oval-Copy-5" fill="#E29400" cx="25.8876404" cy="14.1320755" rx="25.8876404" ry="14.1320755"></ellipse>
                <ellipse id="Oval" fill="#F9C300" cx="25.8876404" cy="11.3056604" rx="25.8876404" ry="11.3056604"></ellipse>
            </g>
            <g id="Group-Copy" transform="translate(172.978110, 54.162293) rotate(17.000000) translate(-172.978110, -54.162293) translate(146.978110, 39.662293)">
                <ellipse id="Oval-Copy-5" fill="#E29400" cx="25.8876404" cy="14.1320755" rx="25.8876404" ry="14.1320755"></ellipse>
                <ellipse id="Oval" fill="#F9C300" cx="25.8876404" cy="11.3056604" rx="25.8876404" ry="11.3056604"></ellipse>
            </g>
        </g>
    </g>
</svg>