<?xml version="1.0" encoding="UTF-8"?>
<svg width="94px" height="106px" viewBox="0 0 94 106" version="1.1" xmlns="http://www.w3.org/2000/svg" xmlns:xlink="http://www.w3.org/1999/xlink">
    <!-- Generator: Sketch 56 (81588) - https://sketch.com -->
    <title>guitar</title>
    <desc>Created with Sketch.</desc>
    <g id="Page-1" stroke="none" stroke-width="1" fill="none" fill-rule="evenodd">
        <g id="guitar" transform="translate(2.000000, 1.000000)" stroke="#444444">
            <path d="M50.9211098,43.2905771 C46.0765163,40.9822183 32.705378,36.3369282 28.0984268,52.5976992 C28.0984268,52.5976992 25.0241179,60.6070275 16.5893211,59.6054855 C8.15452439,58.6039435 2.1608252,70.3367221 2.1608252,70.3367221 C2.1608252,70.3367221 -6.08295528,83.9131802 11.4333862,96.8460046 C28.9512317,109.778829 40.3339959,99.8656687 40.3339959,99.8656687 C40.3339959,99.8656687 50.8925325,92.5360656 48.1957439,83.1958595 C45.5004593,73.8556534 54.6391585,71.4014244 54.6391585,71.4014244 C54.6391585,71.4014244 68.4178984,64.5680809 56.1748089,46.9553786 L55.2257439,46.2109893" id="Stroke-56" stroke-width="3" fill="#FF9151"></path>
            <path d="M47.0451341,67.4788687 C44.3784268,70.8789985 39.2811504,71.3361588 35.6623699,68.4984565 C32.0435894,65.6607542 31.2720041,60.6034183 33.9387114,57.2032885 C36.6054187,53.801655 41.7011911,53.3459985 45.3214756,56.1837008 C48.9402561,59.0214031 49.7118415,64.0787389 47.0451341,67.4788687 L47.0451341,67.4788687 Z" id="Stroke-57" stroke-width="2" fill="#FFFFFF"></path>
            <polygon id="Stroke-58" stroke-width="2" fill="#FFFFFF" points="47.3575285 57.7800023 43.2845203 54.5873992 71.3458618 18.8085901 75.4188699 22.0011931"></polygon>
            <polygon id="Stroke-59" stroke-width="2" fill="#FFFFFF" points="80.2312764 1.05107023 84.2561545 0.422474809 90.0377805 4.95497863 90.0753821 8.76865802 76.1928618 22.608284 70.5676585 18.1975893"></polygon>
            <path d="M74.4568699,3.5877084 L76.8002033,5.42537252" id="Stroke-60" stroke-width="2"></path>
            <path d="M72.8560935,8.06577405 L75.1994268,9.90343817" id="Stroke-61" stroke-width="2"></path>
            <path d="M71.2553171,12.5438397 L73.5986504,14.3815038" id="Stroke-62" stroke-width="2"></path>
            <path d="M87.0789837,13.4838756 L89.4223171,15.3215397" id="Stroke-63" stroke-width="2"></path>
            <path d="M83.1111098,16.1060809 L85.4544431,17.943745" id="Stroke-64" stroke-width="2"></path>
            <path d="M79.1432358,18.7281359 L81.4865691,20.5658" id="Stroke-65" stroke-width="2"></path>
            <path d="M31.7349553,89.0610458 L16.351378,77.0004351 C15.0157683,75.9522748 14.7826382,74.0198702 15.8294675,72.6844809 L15.8294675,72.6844809 C16.8778008,71.3490916 18.8105244,71.1144962 20.1461341,72.1626565 L35.5282073,84.2232672 C36.8653211,85.2714275 37.0984512,87.2038321 36.051622,88.5392214 L36.051622,88.5392214 C35.0032886,89.8746107 33.070565,90.1092061 31.7349553,89.0610458 L31.7349553,89.0610458 Z" id="Stroke-66" stroke-width="2" fill="#FFFFFF"></path>
        </g>
    </g>
</svg>