<?xml version="1.0" encoding="UTF-8"?>
<svg width="517px" height="509px" viewBox="0 0 517 509" version="1.1" xmlns="http://www.w3.org/2000/svg" xmlns:xlink="http://www.w3.org/1999/xlink">
    <!-- Generator: Sketch 56 (81588) - https://sketch.com -->
    <title>hat</title>
    <desc>Created with Sketch.</desc>
    <g id="Page-1" stroke="none" stroke-width="1" fill="none" fill-rule="evenodd">
        <g id="hat" transform="translate(228.843750, 223.796875) rotate(18.000000) translate(-228.843750, -223.796875) translate(-42.156250, -8.703125)">
            <path d="M103,137 L440,137 L440,312.777778 C383.833333,346.259259 327.666667,363 271.5,363 C215.333333,363 159.166667,346.259259 103,312.777778 L103,137 Z" id="Rectangle" fill="#334850"></path>
            <path d="M288.455352,3.69655455 L534.769757,127.762443 C544.410081,132.588954 544.410081,140.411046 534.769757,145.237557 L288.455352,269.303445 C278.815027,274.188387 263.184973,274.238984 253.544648,269.412473 L7.23024335,145.346584 C-2.41008112,140.461643 -2.41008112,132.538357 7.23024335,127.653416 L253.544648,3.58752734 C263.184973,-1.23898428 278.815027,-1.1883871 288.455352,3.69655455 Z" id="Rectangle" fill="#72919E"></path>
            <path d="M274.637064,132.950313 L484.170046,132.758104 C486.931469,132.755571 489.172097,134.992093 489.174631,137.753516 C489.174633,137.756579 489.174633,137.759643 489.174631,137.762706 L489.158347,155.44715 C489.155808,158.204984 486.92077,160.440014 484.162936,160.442544 L274.629954,160.634753 C271.868531,160.637286 269.627903,158.400764 269.625369,155.639341 C269.625367,155.636278 269.625367,155.633214 269.625369,155.630151 L269.641653,137.945707 C269.644192,135.187873 271.87923,132.952843 274.637064,132.950313 Z" id="Rectangle" fill="#334850" transform="translate(379.400000, 146.696429) rotate(13.000000) translate(-379.400000, -146.696429) "></path>
            <path d="M363,260 L588,260 C590.761424,260 593,262.238576 593,265 L593,285 C593,287.761424 590.761424,290 588,290 L363,290 C360.238576,290 358,287.761424 358,285 L358,265 C358,262.238576 360.238576,260 363,260 Z" id="Rectangle-Copy" fill="#334850" transform="translate(475.500000, 275.000000) rotate(90.000000) translate(-475.500000, -275.000000) "></path>
            <circle id="Oval" fill="#334850" cx="477.5" cy="362.5" r="25.5"></circle>
            <path d="M479.079365,363 C501.026455,396.634409 512,422.043011 512,439.225806 C512,456.408602 500.846561,465 478.539683,465 C455.513228,465 444,456.408602 444,439.225806 C444,422.043011 455.693122,396.634409 479.079365,363 Z" id="Triangle" fill="#334850" transform="translate(478.000000, 414.000000) rotate(180.000000) translate(-478.000000, -414.000000) "></path>
        </g>
    </g>
</svg>