<?xml version="1.0" encoding="UTF-8"?>
<svg width="32px" height="32px" viewBox="0 0 32 32" version="1.1" xmlns="http://www.w3.org/2000/svg" xmlns:xlink="http://www.w3.org/1999/xlink">
    <!-- Generator: Sketch 56 (81588) - https://sketch.com -->
    <title>Fill 33</title>
    <desc>Created with Sketch.</desc>
    <g id="Page-1" stroke="none" stroke-width="1" fill="none" fill-rule="evenodd">
        <path d="M27.2687,27.2674 L22.5227,27.2674 L22.5227,19.8414 C22.5227,18.0704 22.4927,15.7924 20.0567,15.7924 C17.5877,15.7924 17.2107,17.7224 17.2107,19.7144 L17.2107,27.2674 L12.4697,27.2674 L12.4697,11.9964 L17.0197,11.9964 L17.0197,14.0844 L17.0847,14.0844 C17.7177,12.8834 19.2657,11.6174 21.5747,11.6174 C26.3807,11.6174 27.2687,14.7794 27.2687,18.8924 L27.2687,27.2674 Z M7.1187,9.9104 C5.5937,9.9104 4.3647,8.6774 4.3647,7.1574 C4.3647,5.6384 5.5937,4.4054 7.1187,4.4054 C8.6367,4.4054 9.8697,5.6384 9.8697,7.1574 C9.8697,8.6774 8.6367,9.9104 7.1187,9.9104 L7.1187,9.9104 Z M9.4927,27.2674 L4.7417,27.2674 L4.7417,11.9964 L9.4927,11.9964 L9.4927,27.2674 Z M30.6667,0.0004 L1.3337,0.0004 C0.5967,0.0004 -0.0003,0.5974 -0.0003,1.3334 L-0.0003,30.6664 C-0.0003,31.4034 0.5967,32.0004 1.3337,32.0004 L30.6667,32.0004 C31.4027,32.0004 31.9997,31.4034 31.9997,30.6664 L31.9997,1.3334 C31.9997,0.5974 31.4027,0.0004 30.6667,0.0004 L30.6667,0.0004 Z" id="Fill-33" fill="#FFFFFF"></path>
    </g>
</svg>