<?xml version="1.0" encoding="UTF-8"?>
<svg width="17px" height="22px" viewBox="0 0 17 22" version="1.1" xmlns="http://www.w3.org/2000/svg" xmlns:xlink="http://www.w3.org/1999/xlink">
    <!-- Generator: Sketch 56 (81588) - https://sketch.com -->
    <title>musical-notes-symbols</title>
    <desc>Created with Sketch.</desc>
    <g id="Page-1" stroke="none" stroke-width="1" fill="none" fill-rule="evenodd">
        <g id="musical-notes-symbols" fill="#010002" fill-rule="nonzero">
            <path d="M8.653,8.76 L16.798,7.439 L16.798,18.482 C16.798,19.396 16.117,20.126 15.054,20.395 C13.886,20.684 12.76,20.195 12.535,19.3 C12.311,18.403 13.076,17.442 14.243,17.15 C14.77,17.02 15.29,17.047 15.724,17.2 L15.724,10.546 L9.755,11.638 L9.727,19.914 C9.722,20.697 9.014,21.468 7.998,21.719 C6.845,22.008 5.635,21.459 5.506,20.638 C5.285,19.752 6.04,18.801 7.197,18.511 C7.717,18.381 8.226,18.407 8.653,18.557 L8.653,8.76 Z M5.591,12.81 L5.62,2.581 C5.62,2.581 7.848,2.462 10.0270003,5.879 C10.0270003,5.879 10.033,4.115 8.358,2.824 C5.087,0.54 5.096,0 5.096,0 C4.472,0.073 4.408,0.547 4.408,0.547 L4.408,11.318 C3.94,11.154 3.38,11.125 2.806,11.268 C1.536,11.582 0.706,12.631 0.949,13.606 C1.092,14.507 2.42,15.112 3.689,14.793 C4.804,14.515 5.583,13.673 5.589,12.81 L5.591,12.81 Z M11.515,6.2 C11.903,6.103 12.174,5.81 12.176,5.51 L12.177,5.51 L12.187,1.951 C12.187,1.951 12.962,1.91 13.72,3.099 C13.72,3.099 13.721,2.485 13.138,2.037 C12,1.242 12.004,1.054 12.004,1.054 C11.787,1.079 11.764,1.244 11.764,1.244 L11.764,4.992 C11.602,4.934 11.408,4.924 11.208,4.973 C10.765,5.082 10.478,5.448 10.562,5.787 C10.612,6.101 11.074,6.311 11.515,6.2 Z M15.355,6.209 C15.625,6.142 15.813,5.937 15.815,5.728 L15.822,3.249 C15.822,3.249 16.362,3.22 16.89,4.048 C16.89,4.048 16.891,3.62 16.486,3.308 C15.693,2.754 15.695,2.623 15.695,2.623 C15.544,2.641 15.528,2.756 15.528,2.756 L15.528,5.367 C15.415,5.327 15.279,5.32 15.14,5.355 C14.832,5.431 14.631,5.685 14.69,5.921 C14.724,6.14 15.046,6.287 15.355,6.209 Z" id="Shape"></path>
        </g>
    </g>
</svg>