<?xml version="1.0" encoding="UTF-8"?>
<svg width="600px" height="300px" viewBox="0 0 600 300" version="1.1" xmlns="http://www.w3.org/2000/svg" xmlns:xlink="http://www.w3.org/1999/xlink">
    <!-- Generator: Sketch 56 (81588) - https://sketch.com -->
    <title>rainbow</title>
    <desc>Created with Sketch.</desc>
    <defs>
        <path d="M450,300 C383,300 209,300 150,300 C150,217.157288 217.157288,150 300,150 C382.842712,150 450,217.157288 450,300 Z M420,300 C366.4,300 227.2,300 180,300 C180,233.72583 233.72583,180 300,180 C366.27417,180 420,233.72583 420,300 Z" id="path-1"></path>
    </defs>
    <g id="Page-1" stroke="none" stroke-width="1" fill="none" fill-rule="evenodd">
        <g id="rainbow">
            <path d="M570,300 C570,150.883118 449.116882,30 300,30 C150.883118,30 30,150.883118 30,300 C19.4908226,300 9.46848556,300 0,300 C0,134.314575 134.314575,0 300,0 C465.685425,0 600,134.314575 600,300 C590.433291,300 580.41464,300 570.000063,300 Z" id="Combined-Shape" fill="#FF0000"></path>
            <path d="M570,300 C462,300 102,300 30,300 C30,150.883118 150.883118,30 300,30 C449.116882,30 570,150.883118 570,300 Z M540,300 C450,300 150,300 60,300 C60,167.45166 167.45166,60 300,60 C432.54834,60 540,167.45166 540,300 Z" id="Combined-Shape" fill="#FF9600"></path>
            <path d="M510,300 C416,300 150,300 90,300 C90,184.020203 184.020203,90 300,90 C415.979797,90 510,184.020203 510,300 Z M480,300 C427,300 191,300 120,300 C120,200.588745 200.588745,120 300,120 C399.411255,120 480,200.588745 480,300 Z" id="Combined-Shape" fill="#6DD400"></path>
            <path d="M480,300 C427,300 191,300 120,300 C120,200.588745 200.588745,120 300,120 C399.411255,120 480,200.588745 480,300 Z M450,300 C382.857143,300 192.857143,300 150,300 C150,217.157288 217.157288,150 300,150 C382.842712,150 450,217.157288 450,300 Z" id="Combined-Shape" fill="#006AD4"></path>
            <path d="M540,300 C450,300 150,300 60,300 C60,167.45166 167.45166,60 300,60 C432.54834,60 540,167.45166 540,300 Z M510,300 C416,300 150,300 90,300 C90,184.020203 184.020203,90 300,90 C415.979797,90 510,184.020203 510,300 Z" id="Combined-Shape" fill="#FFFF00"></path>
            <mask id="mask-2" fill="white">
                <use xlink:href="#path-1"></use>
            </mask>
            <use id="Combined-Shape" fill="#B620E0" xlink:href="#path-1"></use>
        </g>
    </g>
</svg>